<svg viewBox="0 0 160 160" xmlns="http://www.w3.org/2000/svg" xmlns:xlink="http://www.w3.org/1999/xlink"><defs><path id="a" d="M0 0h160v160H0z"/></defs><g fill="none" fill-rule="evenodd"><mask id="b" fill="#fff"><use xlink:href="#a"/></mask><use fill-opacity="0" fill="#D8D8D8" xlink:href="#a"/><g mask="url(#b)" fill-rule="nonzero"><path d="M17 109.4V50.6C17 32.043 32.043 17 50.6 17h58.8c18.557 0 33.6 15.043 33.6 33.6v58.8c0 18.557-15.043 33.6-33.6 33.6H50.6C32.043 143 17 127.957 17 109.4Z" fill="#FFF"/><path d="M17 109.4V50.6C17 32.043 32.043 17 50.6 17h58.8c18.557 0 33.6 15.043 33.6 33.6v58.8c0 18.557-15.043 33.6-33.6 33.6H50.6C32.043 143 17 127.957 17 109.4Zm4.2 0c0 8.12 2.87 15.05 8.61 20.79 5.74 5.74 12.67 8.61 20.79 8.61h58.8c8.12 0 15.05-2.87 20.79-8.61 5.74-5.74 8.61-12.67 8.61-20.79V50.6c0-8.12-2.87-15.05-8.61-20.79-5.74-5.74-12.67-8.61-20.79-8.61H50.6c-8.12 0-15.05 2.87-20.79 8.61-5.74 5.74-8.61 12.67-8.61 20.79v58.8Z" fill="#F0F0F0"/><path d="m70.332 68.387 9.517 11.5 28.03-32.928c1.483-1.974 2.185-3.012 1.483-4.692a5.116 5.116 0 0 0-4.456-3.141 4.003 4.003 0 0 0-2.99 1.1L70.332 68.387Z" fill="#BDB9B4"/><path d="M95.43 73.885 50.887 31.154a5.935 5.935 0 0 0-3.503-2.1 4.578 4.578 0 0 0-4.314 2.772c-.7 1.68-.197 2.86 1.34 5.065l35.448 43.017-26.384 32.407a5.609 5.609 0 0 0-1.357 5.46 4.678 4.678 0 0 0 4.368 2.898 4.167 4.167 0 0 0 3.142-1.533l35.78-33.264c3.557-3.2 3.57-8.778.025-11.991Z" fill="#B31B1B"/><path d="M115.57 122.97 79.765 79.815 70.252 68.32l-5.838 5.267a8.665 8.665 0 0 0 0 12.453l45.415 43.764a3.895 3.895 0 0 0 3.116 1.18 4.358 4.358 0 0 0 4.003-2.802 5.292 5.292 0 0 0-1.378-5.208v-.004Z" fill="#BDB9B4"/></g></g></svg>