<svg width="160" height="160" xmlns="http://www.w3.org/2000/svg" xmlns:xlink="http://www.w3.org/1999/xlink"><defs><radialGradient cx="93.701%" cy="77.814%" fx="93.701%" fy="77.814%" r="143.692%" gradientTransform="scale(-1 -.7146) rotate(49.288 2.035 -2.198)" id="b"><stop stop-color="#00CACC" offset="0%"/><stop stop-color="#048FCE" offset="100%"/></radialGradient><radialGradient cx="13.895%" cy="71.429%" fx="13.895%" fy="71.429%" r="149.207%" gradientTransform="matrix(.55476 -.3962 .23938 .91817 -.11 .113)" id="d"><stop stop-color="#00BBEC" offset="0%"/><stop stop-color="#2756A9" offset="100%"/></radialGradient><linearGradient x1="50%" y1="0%" x2="50%" y2="100%" id="e"><stop stop-color="#00BBEC" offset="0%"/><stop stop-color="#2756A9" offset="100%"/></linearGradient><path id="a" d="M0 0h160v160H0z"/></defs><g fill="none" fill-rule="evenodd"><mask id="c" fill="#fff"><use xlink:href="#a"/></mask><use fill-opacity="0" fill="#D8D8D8" xlink:href="#a"/><path d="M80.849 57.847a4.6 4.6 0 0 0-4.025 4.315c-.065.974-.05 1.044 2.15 6.734 5 12.95 6.21 16.07 6.415 16.51a10.85 10.85 0 0 0 2.05 2.96c.67.69 1.11 1.06 1.85 1.555 1.3.88 1.95 1.12 7.024 2.635 4.945 1.475 7.645 2.45 9.97 3.614 3.015 1.51 5.12 3.22 6.45 5.255.955 1.46 1.8 4.075 2.17 6.71.145 1.03.145 3.305 0 4.235a12.455 12.455 0 0 1-1.88 5.13c-.5.755-.325.63.405-.29 2.075-2.6 4.19-7.04 5.27-11.065a33.639 33.639 0 0 0 .51-15.06 33.129 33.129 0 0 0-16.455-22.649 520.771 520.771 0 0 0-6.61-3.49l-1.27-.665A3689.577 3689.577 0 0 1 87 60.147c-2.74-1.45-3.9-2.03-4.23-2.13a6.88 6.88 0 0 0-1.45-.225l-.465.05-.005.005Z" fill="url(#b)" fill-rule="nonzero" mask="url(#c)"/><path d="M86.819 106.2c-.343.2-.68.408-1.01.625a2557.18 2557.18 0 0 0-8.975 5.575 815.425 815.425 0 0 1-4.945 3.07l-2.315 1.44a495.974 495.974 0 0 1-7.51 4.705c-1.63 1-3.52 1.67-5.45 1.935-.9.12-2.6.12-3.5 0a14.035 14.035 0 0 1-6.59-2.69 18.324 18.324 0 0 1-2.714-2.725 14.185 14.185 0 0 1-2.53-5.705c-.055-.306-.124-.61-.205-.91-.04-.04.03.69.16 1.65.135.995.425 2.435.735 3.665 2.41 9.535 9.25 17.284 18.524 20.974a31.549 31.549 0 0 0 8.29 2.06c1.1.125 4.22.175 5.37.085 5.27-.4 9.86-1.965 14.565-4.96 1.56-.996 3.121-1.989 4.684-2.98l1.92-1.22 3.42-2.174 1.17-.745.045-.025.125-.085.065-.035.86-.55 2.985-1.9c3.8-2.405 4.935-3.25 6.7-4.99.74-.73 1.85-1.97 1.905-2.125.01-.035.21-.34.44-.68a12.45 12.45 0 0 0 1.865-5.115 20.904 20.904 0 0 0 0-4.235 21.68 21.68 0 0 0-1.59-5.685c-1.12-2.36-3.5-4.5-6.915-6.225a14.86 14.86 0 0 0-2.03-.904c-.05 0-3.23 1.96-7.065 4.35l-8.29 5.154-2.194 1.37v.005Z" fill="url(#d)" fill-rule="nonzero" mask="url(#c)"/><path d="m41.015 94.73.02 16.65.21.965c.67 3.02 1.83 5.2 3.85 7.225a13.507 13.507 0 0 0 9.775 4.07c2.68 0 5-.675 7.394-2.15l3.515-2.175 2.78-1.73V60.017c0-11.53-.02-18.375-.06-18.91a13.67 13.67 0 0 0-3.985-8.825c-.725-.72-1.34-1.2-3.185-2.48-3.842-2.66-7.681-5.323-11.52-7.99-1.78-1.234-1.91-1.32-2.454-1.514a4.715 4.715 0 0 0-6.27 3.48c-.07.315-.085 4.52-.085 27.339v26.969l.015 16.645Z" fill="url(#e)" fill-rule="nonzero" mask="url(#c)"/></g></svg>