<svg height="1em" style="flex:none;line-height:1" viewBox="0 0 24 24" width="1em" xmlns="http://www.w3.org/2000/svg"><path d="M3.294 7.821A2.297 2.297 0 0 1 1 5.527a2.297 2.297 0 0 1 2.294-2.295A2.297 2.297 0 0 1 5.59 5.527 2.297 2.297 0 0 1 3.294 7.82zm0-3.688a1.396 1.396 0 0 0 0 2.79 1.396 1.396 0 0 0 0-2.79zm0 10.16A2.297 2.297 0 0 1 1 11.998a2.297 2.297 0 0 1 2.294-2.294 2.297 2.297 0 0 1 2.295 2.294 2.297 2.297 0 0 1-2.295 2.295zm0-3.688a1.395 1.395 0 0 0 0 2.788 1.395 1.395 0 1 0 0-2.788zm0 10.156A2.297 2.297 0 0 1 1 18.467a2.297 2.297 0 0 1 2.294-2.295 2.297 2.297 0 0 1 2.295 2.295 2.297 2.297 0 0 1-2.295 2.294zm0-3.688a1.396 1.396 0 0 0 0 2.79 1.396 1.396 0 0 0 0-2.79zm17.444-9.252a2.297 2.297 0 0 1-2.295-2.294 2.297 2.297 0 0 1 2.294-2.295 2.297 2.297 0 0 1 2.295 2.295 2.297 2.297 0 0 1-2.294 2.294zm0-3.688a1.396 1.396 0 1 0 1.395 1.395c0-.77-.626-1.395-1.395-1.395zm0 10.16a2.297 2.297 0 0 1-2.295-2.295 2.297 2.297 0 0 1 2.294-2.294 2.297 2.297 0 0 1 2.295 2.294 2.297 2.297 0 0 1-2.294 2.295zm0-3.688c-.769 0-1.395.625-1.395 1.393a1.396 1.396 0 0 0 2.79 0c0-.77-.626-1.393-1.395-1.393zm0 10.156a2.297 2.297 0 0 1-2.295-2.294 2.297 2.297 0 0 1 2.294-2.295 2.297 2.297 0 0 1 2.295 2.295 2.297 2.297 0 0 1-2.294 2.294zm0-3.688a1.396 1.396 0 1 0 1.395 1.395c0-.77-.626-1.395-1.395-1.395zm-8.722-6.016a2.297 2.297 0 0 1-2.294-2.294 2.297 2.297 0 0 1 2.294-2.295 2.297 2.297 0 0 1 2.295 2.295 2.297 2.297 0 0 1-2.295 2.294zm0-3.688a1.396 1.396 0 1 0 1.395 1.395c0-.77-.625-1.395-1.395-1.395zm.001-2.78a2.297 2.297 0 0 1-2.295-2.295A2.297 2.297 0 0 1 12.017 0a2.297 2.297 0 0 1 2.294 2.294 2.297 2.297 0 0 1-2.294 2.295zm0-3.688a1.396 1.396 0 1 0 1.395 1.395c0-.77-.626-1.395-1.395-1.395zm0 16.628a2.297 2.297 0 0 1-2.295-2.295 2.297 2.297 0 0 1 2.295-2.294 2.297 2.297 0 0 1 2.294 2.294 2.297 2.297 0 0 1-2.294 2.295zm0-3.688a1.396 1.396 0 1 0 1.395 1.395c0-.77-.626-1.395-1.395-1.395zM12.016 24a2.297 2.297 0 0 1-2.294-2.295 2.297 2.297 0 0 1 2.294-2.294 2.297 2.297 0 0 1 2.295 2.294A2.297 2.297 0 0 1 12.016 24zm0-3.688a1.396 1.396 0 1 0 1.395 1.395c0-.77-.625-1.395-1.395-1.395z" fill="#2A3275"/><path d="M8.363 8.222a.742.742 0 0 1-.277-.053l-1.494-.596a.75.75 0 1 1 .557-1.392l1.493.595a.75.75 0 0 1-.278 1.446h-.001zm0 6.344a.743.743 0 0 1-.277-.053l-1.494-.595a.75.75 0 1 1 .557-1.393l1.493.596a.75.75 0 0 1-.278 1.445h-.001zm8.761-3.169a.741.741 0 0 1-.277-.054l-1.493-.595a.75.75 0 1 1 .555-1.392l1.493.595a.75.75 0 0 1-.278 1.446zm0-6.347a.744.744 0 0 1-.277-.054L15.354 4.4a.75.75 0 0 1 .555-1.392l1.493.596a.75.75 0 0 1-.278 1.445zm0 12.689a.743.743 0 0 1-.277-.053l-1.494-.596a.75.75 0 1 1 .556-1.392l1.493.596a.75.75 0 0 1-.278 1.445zm-10.214.227a.75.75 0 0 1-.279-1.445l1.494-.595a.749.749 0 1 1 .556 1.392l-1.493.595a.743.743 0 0 1-.277.053H6.91zm0-6.306a.75.75 0 0 1-.279-1.446l1.494-.595a.75.75 0 0 1 .556 1.392l-1.493.595a.743.743 0 0 1-.277.053H6.91zm0-6.627a.75.75 0 0 1-.279-1.446l1.494-.595a.75.75 0 0 1 .556 1.392l-1.493.596a.744.744 0 0 1-.277.053H6.91zm1.453 16.331a.743.743 0 0 1-.277-.053l-1.494-.596a.75.75 0 0 1 .555-1.392l1.494.595a.75.75 0 0 1-.278 1.446zM15.63 8.223a.75.75 0 0 1-.278-1.447l1.494-.595a.75.75 0 0 1 .556 1.393l-1.494.595a.744.744 0 0 1-.276.054h-.002zm0 6.344a.75.75 0 0 1-.278-1.446l1.494-.596a.75.75 0 0 1 .556 1.394l-1.494.595a.743.743 0 0 1-.276.053h-.002zm0 6.796a.749.749 0 0 1-.278-1.445l1.494-.595a.75.75 0 1 1 .555 1.392l-1.494.595a.741.741 0 0 1-.277.053z" fill="#5699DB"/></svg>