<svg viewBox="0 0 160 160" xmlns="http://www.w3.org/2000/svg" xmlns:xlink="http://www.w3.org/1999/xlink"><defs><path id="a" d="M0 0h160v160H0z"/></defs><g fill="none" fill-rule="evenodd"><mask id="b" fill="#fff"><use xlink:href="#a"/></mask><use fill-opacity="0" fill="#D8D8D8" xlink:href="#a"/><g mask="url(#b)" fill-rule="nonzero"><path d="M17 80a63 63 0 1 0 126 0 63 63 0 0 0-126 0Z" fill="#C63"/><path d="M21.642 80.332c0 32.047 25.98 58.026 58.026 58.026 32.047 0 58.027-25.98 58.027-58.026 0-32.047-25.98-58.027-58.027-58.027s-58.026 25.98-58.026 58.027Z" fill="#FFF"/><path d="M134.445 80.862c0 25.863-17.905 47.615-41.978 53.45-1.459-2.785-2.851-5.504-4.045-7.758 4.112 3.647 9.085 5.04 11.87 3.315 3.582-2.188 4.842-10.212-.729-17.507a27.282 27.282 0 0 0-6.499 1.061c-3.58 1.061-6.233 2.72-7.958 3.98-1.525-2.322-3.647-6.3-4.708-11.606a32.302 32.302 0 0 1-.332-10.544c1.923 1.326 14.722 5.636 21.089 5.504 6.366-.133 16.778-3.98 15.65-7.096-1.127-3.117-11.472 2.719-22.348 1.724-8.024-.73-9.417-4.31-7.626-6.963 2.254-3.316 6.3.597 12.997-1.393 6.698-1.989 16.115-5.57 19.564-7.56 8.024-4.509-3.383-6.366-6.035-5.106-2.586 1.194-11.406 3.449-15.584 4.443 2.32-8.157-3.25-22.348-9.484-28.582-2.055-2.056-5.106-3.316-8.62-3.979-1.327-1.857-3.515-3.647-6.632-5.239-5.969-3.117-12.733-4.244-19.364-3.117h-.332c-.796.133-1.26.465-1.923.531.796.066 3.78 1.459 5.703 2.255-.928.398-2.188.597-3.183.994-.398.067-.73.133-1.127.332-.929.398-1.658 1.99-1.592 2.785 4.51-.464 11.207-.132 16.115 1.327-3.449.464-6.632 1.392-8.953 2.586-.066.066-.133.066-.265.133-.265.132-.597.199-.796.331-7.361 3.846-10.61 12.932-8.687 23.808 1.724 9.814 8.952 43.569 12.334 59.617-21.287-7.294-36.606-27.72-36.606-51.726 0-30.439 24.67-55.042 55.042-55.042 30.373 0 55.042 24.67 55.042 55.042Z" fill="#DE5833"/><path d="M59.641 71.91a4.112 4.112 0 1 0 8.223 0 4.112 4.112 0 0 0-8.223 0Zm31.367-5.903c-1.923-.066-3.58 1.46-3.647 3.382-.066 1.924 1.459 3.582 3.382 3.648h.265c1.924 0 3.515-1.592 3.515-3.515s-1.591-3.515-3.515-3.515ZM64.88 60.105s-3.05-1.392-6.035.464c-2.984 1.924-2.851 3.847-2.851 3.847s-1.592-3.515 2.652-5.24c4.178-1.79 6.3.93 6.234.93Zm28.25-.265s-2.188-1.26-3.912-1.26c-3.515.066-4.51 1.592-4.51 1.592s.597-3.714 5.107-2.985c1.459.332 2.719 1.26 3.316 2.653Z" fill="#369"/><path d="M84.51 81.658c3.183-1.26 4.575-1.26 9.615-2.255 3.183-.663 7.361-1.525 12.269-3.05 3.912-1.194 4.774-1.79 7.294-1.99 3.383-.265 8.09.133 8.621 1.99.266.862-.596 1.79-1.326 2.652-1.857 2.122-4.178 2.852-7.958 3.98-4.708 1.458-5.04 1.458-6.631 1.989-7.56 2.387-7.162 3.05-9.948 3.315-5.04.465-7.891-1.657-9.284 0-.862 1.062-.597 2.852 0 3.98.862 1.525 2.586 1.989 5.305 2.652 3.316.796 5.969.73 6.632.663 2.387-.132 4.112-.597 6.632-1.326 5.305-1.525 6.83-2.785 9.284-1.99.464.133 2.52.796 2.652 1.99.266 2.387-6.963 5.637-13.263 6.631-6.1.929-11.207-.331-12.6-.663-.928-.265-2.586-.795-5.968-1.99-3.847-1.325-4.841-1.79-5.969-2.652-1.193-.928-2.984-2.32-3.315-4.642-.332-2.387 1.193-4.31 1.99-5.305 1.193-1.46 2.784-2.72 5.967-3.98Z" fill="#FDD20A"/><path d="M81.194 117.468a9.426 9.426 0 0 1 1.99-1.326c1.524-.796 2.917-1.194 3.978-1.326-.199.464-.464.862-.663 1.326 1.857-.928 3.846-1.79 5.968-2.653 3.25-1.326 6.367-2.387 9.285-3.315.994 1.591 2.851 4.774 3.315 9.284a21.868 21.868 0 0 1-1.326 9.947c-.796.464-4.244 2.255-8.621 1.327-4.377-.929-6.698-3.913-7.295-4.643-.199.664-.464 1.327-.663 1.99a9.081 9.081 0 0 1-3.316 0c-1.525-.265-2.652-.928-3.315-1.326-3.117 1.525-6.168 3.116-9.285 4.642a1.905 1.905 0 0 1-1.99.663c-.994-.265-1.325-1.26-1.325-1.326a55.566 55.566 0 0 1-1.99-7.958c-.53-3.25-.663-6.168-.663-8.621-.265-.796.066-1.658.663-1.99.597-.331 1.26-.066 1.326 0 2.454.332 5.77.995 9.285 2.653 1.79.862 3.382 1.79 4.642 2.652Z" fill="#6C3"/></g></g></svg>