<svg viewBox="0 0 160 160" xmlns="http://www.w3.org/2000/svg" xmlns:xlink="http://www.w3.org/1999/xlink"><defs><path id="a" d="M0 0h160v160H0z"/></defs><g fill="none" fill-rule="evenodd"><mask id="b" fill="#fff"><use xlink:href="#a"/></mask><use fill-opacity="0" fill="#D8D8D8" xlink:href="#a"/><g mask="url(#b)" fill="currentColor" fill-rule="nonzero"><path d="M80 19c-34.808 0-63 28.192-63 63 0 27.877 18.034 51.424 43.076 59.771 3.15.552 4.331-1.338 4.331-2.992 0-1.496-.078-6.458-.078-11.734-15.829 2.914-19.924-3.859-21.184-7.403-.709-1.81-3.78-7.402-6.458-8.898-2.204-1.181-5.354-4.095-.078-4.174 4.961-.079 8.505 4.568 9.686 6.458 5.67 9.528 14.726 6.85 18.349 5.197.551-4.095 2.205-6.851 4.016-8.426-14.017-1.575-28.665-7.009-28.665-31.107 0-6.85 2.441-12.52 6.458-16.93-.63-1.576-2.836-8.033.63-16.696 0 0 5.276-1.654 17.325 6.458 5.04-1.418 10.395-2.127 15.75-2.127s10.71.71 15.75 2.127c12.048-8.19 17.325-6.458 17.325-6.458 3.465 8.663 1.26 15.12.63 16.695 4.016 4.41 6.457 10.002 6.457 16.931 0 24.177-14.726 29.532-28.744 31.107 2.284 1.968 4.253 5.748 4.253 11.655 0 8.426-.079 15.199-.079 17.325 0 1.654 1.181 3.622 4.331 2.992C125.726 133.114 142.993 109.066 143 82c0-34.808-28.192-63-63-63Z"/></g></g></svg>