<svg class="icon" viewBox="0 0 1024 1024" xmlns="http://www.w3.org/2000/svg" width="200" height="200"><path d="M190.464 489.472h327.68v40.96h-327.68z" fill="#C7DCFE"/><path d="m482.345 516.506 111.268-308.204 38.543 13.926-111.288 308.204z" fill="#C7DCFE"/><path d="M497.664 196.608a122.88 122.88 0 1 0 245.76 0 122.88 122.88 0 1 0-245.76 0Z" fill="#8FB8FC"/><path d="M59.391999999999996 509.952a122.88 122.88 0 1 0 245.76 0 122.88 122.88 0 1 0-245.76 0ZM558.653 520.909l283.771 163.84-20.48 35.471-283.77-163.84z" fill="#C7DCFE"/><path d="M718.848 686.08a122.88 122.88 0 1 0 245.76 0 122.88 122.88 0 1 0-245.76 0Z" fill="#B3CEFE"/><path d="m448.676 803.779 49.602-323.912 40.49 6.205-49.603 323.912z" fill="#C7DCFE"/><path d="M368.64 530.432a143.36 143.36 0 1 0 286.72 0 143.36 143.36 0 1 0-286.72 0Z" fill="#4185FF"/><path d="M360.448 843.776a102.4 102.4 0 1 0 204.8 0 102.4 102.4 0 1 0-204.8 0Z" fill="#8FB8FC"/></svg>