<svg xmlns="http://www.w3.org/2000/svg" width="200" height="200"><path d="M0 0h200v200H0V0Z" fill="#FEFEFE"/><path d="M59 42c2.395 1.145 2.395 1.145 4.813 2.813l2.863 1.925 1.584 1.085c4.102 2.775 8.29 5.423 12.455 8.101 3.234 2.083 6.453 4.174 9.61 6.373l2.862 1.953 2.418 1.703c3.417 1.494 4.82 1.205 8.395.047 3.429-1.951 6.64-4.182 9.875-6.438a4472.82 4472.82 0 0 1 5.621-3.816l2.808-1.914a562.92 562.92 0 0 1 11.633-7.707l1.912-1.28c3.842-2.45 6.596-3.584 11.151-2.845 2.638 2.11 3.569 4.038 4.5 7.246l.745 2.52.755 2.672.798 2.742a370.744 370.744 0 0 1 4.448 16.8c.774 3.1 1.64 6.162 2.531 9.23 2.487 8.654 4.825 17.345 7.16 26.04l1.897 7.048c.419 1.555.836 3.11 1.252 4.667 1.081 4.028 2.2 8.04 3.38 12.04l.716 2.467c.453 1.55.914 3.098 1.386 4.642 1.26 4.346 1.354 6.275.432 10.886h-37l7-14c1.404-4.211 1.264-8.213 1.313-12.625l.087-2.621c.088-8.958-3.226-15.617-8.4-22.754l-1-1c-.33-1.576-.613-3.161-.875-4.75-1.124-6.478-2.6-12.856-4.125-19.25-5.679.978-9.165 3.523-13.582 7.078l-2.856 2.234-2.683 2.176c-3.793 1.992-5.712 1.294-9.879.512a84.33 84.33 0 0 0-4.418.219c-8.513.548-14.537.791-21.52-4.531A183.864 183.864 0 0 1 74 77c-1.89-1.89-1.89-1.89-4-3-2.596.39-2.596.39-5 1l-.38 2.2c-.583 3.312-1.195 6.618-1.808 9.925l-.595 3.46C60.956 97.26 59.76 101.164 55 106c-4.645 8.518-5.42 18.173-3.457 27.61 1.385 4.436 3.414 8.564 5.59 12.663C58 148 58 148 59 151c-5.109.025-10.217.043-15.326.055-1.74.005-3.478.012-5.218.02-2.494.013-4.989.018-7.483.023l-2.37.015c-1.869 0-3.736-.051-5.603-.113l-1-1c.33-6.507 1.842-12.313 3.7-18.54 1.695-5.725 3.2-11.502 4.738-17.273 2.089-7.814 4.234-15.599 6.575-23.341 2.573-8.629 4.794-17.36 7.045-26.077C48.186 49.008 48.186 49.008 51 43c2.812-1.406 4.88-1.234 8-1Z" fill="#2BE155"/><path d="M83 109h9v23H82c-.11-7.755.08-15.296 1-23Z" fill="#141414"/><path d="M108 109h9l1 23h-10v-23Z" fill="#101010"/></svg>