<svg viewBox="0 0 160 160" xmlns="http://www.w3.org/2000/svg" xmlns:xlink="http://www.w3.org/1999/xlink"><defs><path id="a" d="M0 0h160v160H0z"/></defs><g fill="none" fill-rule="evenodd"><mask id="b" fill="#fff"><use xlink:href="#a"/></mask><use fill-opacity="0" fill="#D8D8D8" xlink:href="#a"/><g mask="url(#b)" fill-rule="nonzero"><path d="M67.418 57.32v33.02s12.695-1.477 12.695 10.923v-31.25c0-11.808-12.695-12.693-12.695-12.693" fill="#231F1F"/><path d="M73.364 55v29.054s7.008 1.352 7.008 13.751c0 12.4.035-23.067.035-29.71C80.408 56.287 73.364 55 73.364 55" fill="#AAA"/><path d="M80.6 69.718v30.049s6.094-17.07 31.715 4.922c0-7.97.049-28.071.049-34.715-25.325-18.45-31.765-.256-31.765-.256M10 92.21h5.686v-7.278h3.24c4.99 0 7.792-2.27 7.792-7.449 0-5.035-3.263-7.22-7.981-7.22H10V92.21Zm5.686-17.4h.97c2.235 0 4.147.031 4.147 2.847 0 2.725-2.058 2.725-4.146 2.725h-.97V74.81Zm13.306 2.502v8.952c0 4.895 3.494 6.402 8.017 6.402s8.02-1.506 8.02-6.402v-8.952h-5.346v7.932c0 1.88-.47 3.213-2.674 3.213-2.203 0-2.672-1.332-2.672-3.213v-7.932h-5.345Zm19.22 14.898h5.346v-1.66h.058c.957 1.458 2.752 2.115 4.491 2.115 4.433 0 7.506-3.668 7.506-7.976 0-4.28-3.044-7.947-7.448-7.947-1.71 0-3.476.652-4.606 1.986v-10.63h-5.345l-.001 24.112Zm8.53-10.918c2.158 0 3.412 1.567 3.412 3.428 0 1.92-1.253 3.396-3.412 3.396-2.157 0-3.411-1.477-3.411-3.396 0-1.861 1.253-3.428 3.411-3.428Z" fill="#3978AD"/><path fill="#FFF" d="M90.526 79.573h.058l5.038 12.637h2.272l5.27-12.637h.058l1.602 12.637h5.711l-3.323-21.949h-5.677l-4.72 11.73-4.455-11.73h-5.62L83.015 92.21h5.677z"/><path d="M119.976 82.543c.32-1.563 1.6-2.388 3.143-2.388 1.426 0 2.736.943 3.001 2.388h-6.144Zm11.06 2.517c0-5.107-3.013-8.317-8.218-8.317-4.883 0-8.301 2.998-8.301 7.975 0 5.152 3.712 7.947 8.685 7.947 3.421 0 6.784-1.6 7.632-5.118h-5.108c-.583.988-1.4 1.366-2.536 1.366-2.189 0-3.328-1.16-3.328-3.3h11.175v-.553Zm13.618 7.15H150V68.1h-5.346v10.63c-1.102-1.335-2.9-1.987-4.608-1.987-4.404 0-7.448 3.667-7.448 7.946 0 4.278 3.102 7.975 7.506 7.975 1.737 0 3.564-.658 4.49-2.115h.06v1.66Zm-3.184-10.918c2.157 0 3.412 1.567 3.412 3.428 0 1.92-1.253 3.396-3.412 3.396-2.156 0-3.412-1.477-3.412-3.396 0-1.861 1.254-3.428 3.412-3.428Z" fill="#3978AD"/></g></g></svg>