<svg class="icon" viewBox="0 0 1039 1024" xmlns="http://www.w3.org/2000/svg" width="202.93" height="200"><path d="M653.91 53.94c1.261.699 2.866 2.304 3.565 3.566.7 1.261 1.286 1.734 1.306 1.05.044-1.613-4.309-5.966-5.921-5.922-.685.02-.212.607 1.05 1.306M444.181 77.333c-1.493.996-3.5 5.024-2.507 5.024.958 0 5.001-4.126 5.001-5.102 0-.853-1.157-.816-2.494.078m-30.747 76.492c-1.12.784-2.265 2.302-2.545 3.373-.645 2.468-.55 2.45 2.604-.47 3.032-2.81 2.989-5.037-.059-2.903m29.838 122.869c-1.408 1.407-2.284 2.832-1.948 3.168.336.337 1.763-.54 3.171-1.948s2.285-2.835 1.949-3.17c-.336-.335-1.764.542-3.172 1.95m181 42.518c.027 1.323 1.404 2.82 3.7 4.031 1.88.991 2.149.974 1.535-.095-2.014-3.52-5.276-5.972-5.234-3.936m-174.166 79.076c-1.016.987-1.393 1.796-.838 1.796 1.108 0 3.668-2.724 3.062-3.26-.207-.182-1.208.475-2.224 1.464m264.447 19.579c-.12 1.81 2.9 5.254 4.547 5.188 1.281-.051 1.189-.275-.431-1.06-1.133-.548-2.509-1.924-3.057-3.054-.548-1.133-1.025-1.615-1.06-1.074m129.502 9.368c1.31.662 2.923 2.275 3.585 3.585.887 1.752 1.208 1.937 1.22.7.018-2.166-3.339-5.523-5.507-5.505-1.235.01-1.05.33.702 1.22m-529.46 15.818c-1.494.996-3.5 5.024-2.507 5.024.957 0 5-4.123 5-5.1 0-.852-1.156-.816-2.494.076M106.83 535.51c-1.525 2.847-.75 3.03 1.288.305.948-1.27 1.289-2.307.753-2.307-.534 0-1.452.901-2.041 2.002m213.383 27.997c-3.283 2.294-3.946 3.597-1.832 3.597 1.245 0 3.437-2.056 4.86-4.56.942-1.656.528-1.522-3.028.963m101.266 13.874a13.677 13.677 0 0 0 4.321 0c1.189-.23.217-.415-2.16-.415-2.375 0-3.347.186-2.16.415m286.653 32.2c-4.512 5.147-4.901 6.077-1.56 3.734 3.138-2.2 5.82-5.894 4.278-5.894-.453 0-1.678.971-2.718 2.16m288.735.061c-3.493 3.717-1.856 5.227 1.752 1.617 1.977-1.975 2.525-3.838 1.127-3.838-.436 0-1.731 1-2.879 2.221m-532.602 38.334c-3.323 3.692-3.669 4.92-.87 3.083 2.655-1.736 5.088-5.241 3.641-5.241-.455 0-1.702.972-2.771 2.158m388.45 14.522c0 1.47 1.513 2.862 4.129 3.797 1.853.663 1.546-.234-1.162-3.398-1.761-2.056-2.967-2.219-2.967-.4m-198.494 54.41c.904.526 2.31 1.905 3.12 3.065.811 1.157 1.474 1.575 1.474.93 0-1.547-3.512-5.02-5.04-4.984-.682.018-.49.444.446.99m36.27 22.778c0 .975 4.134 5.001 5.135 5.001.38 0 .234-.855-.324-1.897-1.1-2.059-4.81-4.45-4.81-3.104m17.966 16.38c3.052 2.943 3.749 3.048 2.3.342-.554-1.035-1.9-2.117-2.99-2.402-1.707-.446-1.61-.158.69 2.06M304.61 776.18c0 1.298 2.295 3.72 4.131 4.36 1.203.419 1.525.24 1.052-.587-1.973-3.471-5.183-5.807-5.183-3.773M90.62 791.27c-.12 1.804 2.725 5.005 4.944 5.565 2.112.53 2.122.502.327-.84-1.026-.765-2.146-1.394-2.492-1.394-.348 0-1.099-.971-1.674-2.158-.572-1.188-1.069-1.717-1.105-1.174m373.336 136.546c0 1.532 3.038 5.013 4.375 5.013 1.978 0 1.73-.731-1.155-3.406-2.725-2.526-3.22-2.772-3.22-1.607m213.264 47.55c-3.49 3.717-1.856 5.228 1.754 1.618 1.978-1.978 2.524-3.839 1.128-3.839-.436 0-1.732.999-2.882 2.221" fill="#bfbfbf"/><path d="M508.11 34.322c0 1.678-.789 1.907-7.438 2.158l-7.44.28-.299 3.6-.297 3.6h-6.47c-7.158 0-8.773.919-8.773 4.991 0 2.497-.273 2.69-3.838 2.69-3.08 0-3.842.348-3.842 1.75 0 2.592-3.814 5.678-7.965 6.446-4.184.772-6.432 2.635-6.432 5.334 0 1.32-.863 2.048-2.914 2.458-3.19.638-4.18 1.97-5.239 7.049-.804 3.863-2.906 6.581-6.006 7.765-1.674.64-2.158 1.585-2.158 4.209 0 3.203-.173 3.383-3.24 3.383-3.451 0-4.44 1.936-4.44 8.69 0 2.473-2.923 5.883-5.888 6.872-.545.183-1.28 3.554-1.631 7.495-.629 7.032-.695 7.175-3.52 7.658-3.308.567-3.966 4.28-4.202 23.729l-.12 9.806-3.358 3.359-3.359 3.361.095 9.87c.117 11.947.697 14.32 3.88 15.854 2.436 1.174 2.458 1.291 2.991 15.898.573 15.677 1.873 21.12 5.315 22.212 1.586.504 2.01 1.817 2.59 8.011.713 7.656 1.373 8.81 5.046 8.835 1.71.012 2.163.565 2.175 2.654.027 4.794 2.5 10.257 5.062 11.188 1.778.645 2.604 1.878 3.217 4.798.74 3.532 1.145 3.963 3.946 4.234l3.118.3v5.53c0 5.713-1.659 8.482-6 10.014-1.168.412-1.677 1.62-1.677 3.983 0 3.232-.156 3.39-3.35 3.39-3.156 0-3.383.217-3.953 3.785-.543 3.388-.925 3.82-3.612 4.08-2.716.266-3.032.638-3.303 3.88-.258 3.113-.694 3.69-3.293 4.363-3.247.843-3.992 2.326-5.032 10.05-.597 4.435-.702 4.557-3.914 4.557-3.203 0-3.3.114-3.3 3.783 0 3.678-.1 3.79-3.601 4.08-3.405.282-3.615.492-3.897 3.897-.27 3.264-.558 3.6-3.086 3.6-3.269 0-4.777 2.2-4.777 6.968 0 3.303-2.472 6.492-5.999 7.736-1.155.407-1.678 1.615-1.678 3.861 0 3.062-.239 3.305-3.783 3.87-3.549.568-3.8.826-4.08 4.204-.265 3.201-.614 3.632-3.174 3.924-3.332.378-4.286 1.528-4.308 5.174-.01 2.02-.59 2.767-2.517 3.25-2.908.73-5.176 5.268-5.176 10.359 0 3.156-.19 3.349-3.6 3.629-3.405.282-3.617.494-3.897 3.9-.27 3.263-.558 3.597-3.086 3.597-2.957 0-4.776 2.16-4.776 5.67 0 1.403-.882 2.18-3.12 2.755-3.035.777-3.143.984-3.998 7.658l-.876 6.86-3.442.287c-3.225.27-3.461.516-3.741 3.887-.28 3.403-.478 3.6-3.588 3.6-3.096 0-3.325.227-3.905 3.841-.49 3.072-1.02 3.842-2.65 3.854-3.252.024-4.102 1.12-4.776 6.17-.626 4.679-3.54 9.172-5.944 9.172-.633 0-1.427 1.73-1.766 3.842-.58 3.626-.796 3.838-3.96 3.838-3.26 0-3.35.103-3.35 3.783 0 3.676-.1 3.79-3.6 4.08-3.38.278-3.616.51-3.89 3.788-.25 3.005-.684 3.568-3.136 4.058-3.34.667-4.73 3.529-4.73 9.733 0 4.16-.035 4.201-3.6 4.499-3.406.28-3.618.492-3.898 3.897-.253 3.057-.64 3.6-2.562 3.6-4.117 0-5.3.991-5.3 4.445 0 2.886-.351 3.352-2.914 3.863-3.402.682-4.766 2.77-4.766 7.298 0 3.527-3.184 7.431-6.06 7.431-1.245 0-1.618.875-1.618 3.78 0 3.678-.1 3.79-3.6 4.08-3.405.283-3.617.495-3.897 3.897-.273 3.291-.546 3.6-3.166 3.6-2.32 0-3.128.6-4.224 3.12-1.152 2.648-1.362 2.79-1.393.936-.054-3.067-3.354-4.056-13.54-4.056-8.25 0-8.577-.082-8.592-2.16-.034-5.225 1.613-5.04-44.437-5.04-45.829 0-45.778-.004-45.778 4.918 0 2.214-.234 2.282-7.68 2.282h-7.68l-3.838 3.84c-3.096 3.095-4.538 3.845-7.439 3.865-3.142.024-3.895.506-5.926 3.797-2.207 3.578-2.6 3.785-7.678 4.053l-5.353.285-.3 3.598c-.29 3.5-.402 3.6-4.08 3.6-3.77 0-3.78.01-3.78 3.84v3.84h-7.68v7.68h-3.839c-3.829 0-3.841.01-3.841 3.78 0 3.678-.097 3.79-3.598 4.08-3.405.282-3.617.494-3.897 3.897-.246 2.967-.667 3.602-2.401 3.615-3.856.026-4.792 1.47-5.379 8.298-.55 6.433-.62 6.572-3.439 6.893-3.824.434-4.292 1.408-4.309 9.032-.012 5.834-.204 6.48-1.934 6.48-1.895 0-1.919.64-1.919 52.314s.024 52.315 1.92 52.315c1.743 0 1.919.638 1.919 7.005 0 7.726.852 9.312 4.993 9.312 2.58 0 2.687.19 2.687 4.738 0 6.703 1.205 9.277 4.664 9.97 2.533.506 2.933 1.032 3.196 4.215.282 3.432.494 3.652 3.843 3.93 3.333.277 3.564.508 3.842 3.838.275 3.332.506 3.564 3.838 3.841 3.33.278 3.564.51 3.839 3.839.278 3.342.502 3.563 3.895 3.844 3.38.28 3.6.492 3.6 3.497 0 3.379 1.21 4.363 5.358 4.363 2 0 2.322.453 2.322 3.27 0 3.192.112 3.284 4.762 3.925 3.298.453 4.922 1.17 5.29 2.326.611 1.922 7.907 5.839 10.878 5.839 1.22 0 2.49 1.003 3.254 2.577 1.457 3 3.812 3.773 14.305 4.688 6.94.604 7.585.838 7.585 2.745 0 4.395-.08 4.387 45.685 4.387 46.73 0 44.545.234 44.545-4.747 0-1.488 1.396-1.822 10.769-2.562l10.768-.85.867-3.038c.819-2.877 1.179-3.076 6.75-3.707 6.73-.765 8.284-1.68 8.284-4.891 0-1.81.509-2.282 2.462-2.282 4 0 6.175-1.683 6.175-4.774 0-2.529.336-2.819 3.592-3.087 2.585-.214 3.686-.794 3.927-2.065.4-2.11 3.515-5.405 5.2-5.502 2.26-.132 6.96-3.406 7.907-5.508 1.227-2.723 3.154-2.696 3.546.05.417 2.927 4.786 4.863 12.084 5.35 5.137.344 6.296.775 7.909 2.93 1.04 1.389 2.343 3.067 2.898 3.727.616.731 3.427 1.199 7.21 1.199 5.787 0 6.201.146 6.216 2.16.027 4.07 1.435 4.95 8.569 5.354 6.706.378 6.774.41 6.774 3.098 0 3.486.58 3.785 8.588 4.458 6.623.555 6.672.58 6.962 3.544.21 2.168.816 3.035 2.209 3.171 13.2 1.289 12.826 1.162 13.143 4.436l.295 3.056 7.385.28 7.383.278.294 3.561.298 3.561 7.438.28c7.412.28 7.44.29 7.44 2.928 0 4.039 1.629 4.952 8.831 4.952 6.27 0 6.528.09 6.528 2.331 0 3.973 2.36 5.347 9.188 5.347 5.753 0 6.17.146 6.184 2.16.027 3.963 1.459 4.92 7.997 5.337l6.223.394.321 24.706c.346 26.477.61 27.877 5.24 27.877 2.202 0 2.282.256 2.282 7.23 0 8.522 1.761 13.51 5.232 14.83 2.063.785 2.448 1.535 2.448 4.794 0 2.609.421 3.863 1.298 3.863 2.935 0 6.38 4.597 6.38 8.513 0 5.7.73 6.845 4.364 6.845 3.003 0 3.218.219 3.498 3.6.282 3.403.492 3.614 3.897 3.897 3.5.29 3.6.402 3.6 4.08 0 3.773.01 3.78 3.839 3.78h3.841v3.841c0 3.83.01 3.84 3.78 3.84 3.678 0 3.79.099 4.08 3.6.283 3.407.5 3.624 4.1 4.079 3.078.39 3.907.935 4.357 2.88.638 2.74 5.006 4.659 10.8 4.744 3.072.046 3.6.37 3.612 2.214.032 4.487 1.218 5.02 11.95 5.368 9.2.298 10.113.492 10.113 2.158 0 1.781 1.428 1.835 49.436 1.835 47.614 0 49.436-.066 49.436-1.793 0-1.598 1.033-1.842 9.56-2.25 9.98-.483 12.191-1.336 12.698-4.906.239-1.664 1.045-2.154 3.946-2.392 2.706-.222 3.853-.843 4.448-2.4 1.383-3.614 4.162-5.32 9.19-5.636 4.66-.295 4.818-.402 5.682-3.902.797-3.23 1.206-3.6 3.975-3.6 3.262 0 4.256-1.25 4.256-5.359 0-1.997.45-2.32 3.256-2.32 3.44 0 4.421-1.19 4.421-5.357 0-2.012.448-2.321 3.35-2.321 3.163 0 3.38-.212 3.962-3.841.505-3.16.997-3.84 2.772-3.84 3.154 0 4.046-1.643 4.813-8.877l.685-6.48h3.249c2.933 0 3.247-.265 3.247-2.747 0-8.645 1.072-11.584 4.447-12.22l3.233-.604v-21.62l3.838-.614 3.842-.614V853.36c0-38.375-.159-39.56-5.303-39.56-2.292 0-2.316-.101-2.587-10.797l-.27-10.8-3.055-.899c-3.322-.979-4.101-2.618-4.145-8.7-.034-4.723-.74-5.907-4.02-6.73-2.062-.516-2.683-1.371-3.192-4.394-.595-3.508-.85-3.754-3.91-3.754-3.081 0-3.276-.192-3.276-3.244 0-2.482-.896-4.168-3.817-7.178-2.102-2.163-4.443-5.427-5.205-7.254-1.115-2.67-2.202-3.554-5.541-4.506-4.784-1.366-7.385-3.303-8.562-6.374-.64-1.676-1.586-2.16-4.209-2.16-3.064 0-3.383-.254-3.383-2.687 0-3.484-1.59-4.994-5.261-4.994-2.356 0-3.162-.545-3.968-2.68-1.099-2.907-6.058-4.997-11.862-4.997-2.13 0-3.676-.719-4.9-2.28-3.238-4.112-7.53-5.4-18.008-5.4h-9.634l-.3-3.12c-.39-4.02-2.723-4.336-33.038-4.465-25.772-.11-33.898.502-34.71 2.618-1.492 3.895-3.913 4.967-11.218 4.967-11.042 0-16.81 1.532-17.937 4.764-.828 2.373-1.505 2.711-6.474 3.232-7.502.785-8.76 1.391-9.39 4.553-.46 2.297-1.07 2.75-4.031 2.998-3.279.273-3.508.51-3.788 3.89-.278 3.344-.516 3.6-3.361 3.605-6.258.012-10.284 1.798-10.89 4.828-.453 2.265-1.191 2.92-3.832 3.417-3.4.638-5.137 2.694-5.137 6.087 0 1.447-.616 1.983-2.282 1.983-2.93 0-4.102 1.476-4.95 6.238-1.096 6.143-3.607 8.16-10.157 8.16h-5.534l-.297-3.6-.297-3.6-7.385-.278-7.383-.28-.295-3.562-.297-3.558-7.439-.283-7.438-.28v-3.215c0-3.902-1.011-4.382-9.198-4.382h-6.162v-3.25c0-3.801-1.313-4.396-9.777-4.418-5.44-.012-5.459-.022-5.76-3.093-.347-3.559-2.127-4.35-10.138-4.501-4.916-.095-5.04-.166-5.04-2.92 0-3.581-.285-3.73-8.52-4.497-6.248-.58-6.84-.821-6.84-2.78 0-3.159-1.768-4.13-8.824-4.854-5.944-.609-6.377-.816-6.872-3.29-.57-2.858-1.544-3.284-10.054-4.395-4.097-.533-5.279-1.098-5.941-2.837-.916-2.412-4.482-3.807-12.223-4.784l-5.04-.636v-3.639c0-2.83.427-3.748 1.92-4.138 1.773-.465 1.92-1.31 1.92-11.034V669.09l20.581-.397c22-.426 24.533-1.02 24.533-5.746 0-1.659 1.191-1.773 18.958-1.827 24.481-.07 26.542-.416 26.94-4.513l.299-3.11h43.215l3.446-3.84 3.447-3.838 19.761-.056c25.071-.071 27.146-.4 28.36-4.509l.918-3.115h21.32c21.673 0 24.357-.258 24.357-2.336 0-4.56 3.49-5.344 23.8-5.344 21.532 0 26.562-.98 27.668-5.386l.574-2.292h21.905c23.773 0 24.923-.248 24.923-5.349v-2.33h43.833l3.086-3.842 3.087-3.838h21.49c23.751 0 25.924-.383 26.881-4.743l.645-2.937h22.884v2.32c0 4.17.982 5.36 4.424 5.36h3.256v6.172c0 6.798 1.374 9.187 5.29 9.187 1.935 0 2.317.536 2.57 3.598.283 3.393.502 3.617 3.844 3.895 3.332.277 3.563.509 3.839 3.84.277 3.34.501 3.562 3.894 3.842 3.381.28 3.6.495 3.6 3.498 0 3.378 1.211 4.365 5.36 4.365 1.763 0 2.323.518 2.335 2.158.024 3.804 1.35 4.625 8.416 5.217 6.773.568 6.827.597 7.117 3.52.35 3.563 2.168 4.23 11.915 4.367 7.071.097 7.573.368 10.937 5.856.753 1.222 5.61 1.478 32.356 1.702 35.017.292 39.114-.19 41.364-4.862 1.143-2.374 1.73-2.6 6.72-2.613 8.472-.022 9.787-.614 9.787-4.419v-3.249h5.822c7.297 0 9.536-1.12 9.536-4.774 0-2.528.333-2.816 3.6-3.086 3.393-.28 3.617-.502 3.894-3.844.276-3.33.51-3.56 3.84-3.838 3.331-.278 3.563-.51 3.838-3.84.278-3.331.509-3.563 3.841-3.84 3.33-.275 3.561-.51 3.839-3.839.278-3.332.509-3.563 3.841-3.841l3.544-.295.297-5.266c.314-5.556 1.893-8.24 5.702-9.697 1.976-.755 2.16-1.444 2.16-8.05 0-6.584.169-7.222 1.92-7.222 1.893 0 1.92-.64 1.92-45.115 0-44.476-.027-45.117-1.92-45.117-1.663 0-1.934-.67-2.017-5.04-.15-8.01-.94-9.791-4.5-10.14-2.88-.28-3.082-.54-3.082-3.975 0-3.887-1.055-4.842-5.359-4.842-1.992 0-2.321-.453-2.321-3.215 0-5.378-1.766-9.022-4.906-10.116a6.14 6.14 0 0 1-3.838-3.841c-1.126-3.225-4.755-4.906-10.596-4.906-3.673 0-3.697-.024-3.697-3.838v-3.842h-3.84c-3.426 0-3.84-.25-3.84-2.33 0-3.951-2.365-5.347-9.066-5.347-5.963 0-6.06-.044-6.63-2.896-.94-4.699-2.224-4.823-48.85-4.764-23.762.031-43.26-.069-43.324-.222-1.035-2.44-2.582-4.294-4.206-5.035-1.182-.54-2.248-2.182-2.587-3.982-.63-3.369-1.922-4.789-4.845-5.325-1.186-.219-2.046-1.266-2.25-2.745-.45-3.237-1.688-4.552-4.96-5.27-2.238-.493-2.81-1.18-3.051-3.662-.247-2.543-.86-3.237-3.657-4.136-2.664-.855-3.427-1.649-3.685-3.836-.365-3.076-1.564-4.167-4.606-4.19-1.57-.01-2.197-.781-2.667-3.28-.614-3.279-2.012-4.411-5.439-4.411-1.376 0-1.841-.68-1.841-2.69 0-3.41-1.581-4.99-4.991-4.99-2.304 0-2.687-.385-2.687-2.687 0-3.412-1.58-4.993-4.993-4.993-2.414 0-2.687-.33-2.687-3.257 0-3.44-1.188-4.42-5.358-4.42-1.998 0-2.322-.454-2.322-3.26 0-3.44-1.188-4.42-5.356-4.42-2.012 0-2.321-.449-2.321-3.35 0-3.164-.212-3.38-3.841-3.96-3.52-.565-3.842-.865-3.866-3.613-.02-2.42-.723-3.427-3.66-5.236-2.838-1.75-3.893-3.194-4.797-6.572-.918-3.44-1.751-4.552-4.046-5.42-1.958-.74-3.125-2-3.62-3.909-.713-2.752-1.787-3.741-5.21-4.798-1.003-.31-1.677-1.47-1.677-2.88a5.312 5.312 0 0 0-5.35-5.378c-1.911 0-2.33-.482-2.33-2.689 0-3.393-1.579-4.99-4.933-4.99-2.348 0-2.662-.388-2.927-3.6-.283-3.393-.502-3.618-3.844-3.895-3.332-.275-3.564-.51-3.839-3.839-.265-3.181-.599-3.576-3.259-3.834-2.53-.246-3.088-.806-3.839-3.839-.762-3.086-1.286-3.59-3.997-3.853-2.55-.246-3.12-.711-3.12-2.56 0-4.104-.994-5.298-4.42-5.298-2.807 0-3.257-.321-3.257-2.32 0-4.149-.987-5.36-4.365-5.36-3.003 0-3.218-.219-3.498-3.597-.263-3.193-.623-3.644-3.176-3.98-2.828-.375-2.835-.392-.482-.994 2.167-.555 2.487-1.288 3.283-7.539.86-6.732.96-6.927 3.566-6.927 3.517 0 4.672-2.307 4.672-9.336 0-5.515.058-5.641 3.113-6.542 3.833-1.13 4.43-3.696 4.51-19.42.054-10.66.09-10.837 2.473-11.743 3.34-1.27 4.128-3.985 4.791-16.503.952-18.039-.244-25.899-4.09-26.895l-3.12-.806v-13.331c0-15.618-.131-16.127-4.41-16.931l-3.267-.614-.003-6.852c-.002-7.97-2.14-13.399-5.466-13.871-1.729-.246-2.16-1.02-2.399-4.319-.282-3.865-.426-4.03-3.775-4.311-3.417-.285-3.49-.378-3.934-4.986-.516-5.39-2.884-9.602-5.395-9.602-1.198 0-2-1.1-2.618-3.6-.712-2.884-1.491-3.778-3.92-4.491-2.216-.655-3.254-1.686-3.863-3.841-.694-2.456-1.505-3.096-4.88-3.849-2.595-.577-4.256-1.55-4.622-2.699-.311-.986-1.612-2.27-2.886-2.85-1.274-.582-2.316-1.417-2.316-1.86 0-.444-1.7-.807-3.78-.807-3.679 0-3.79-.1-4.08-3.6l-.298-3.6-7.385-.28-7.383-.278-.297-3.56-.294-3.562-7.44-.28c-6.649-.25-7.438-.48-7.438-2.158 0-1.844-1.018-1.88-52.795-1.88s-52.795.036-52.795 1.88m15.745 278.864c1.17 4.65 2.538 4.825 37.53 4.825 35.197 0 36.955-.229 36.955-4.832v-2.366h24v3.384c0 2.706.47 3.56 2.348 4.277 2.823 1.072 5.083 4.299 5.911 8.445.665 3.327 1.815 4.62 4.575 5.149 1.057.202 2.24 1.722 2.879 3.702.825 2.558 1.829 3.578 4.204 4.277 2.511.74 3.12 1.42 3.12 3.483 0 2.965 1.413 4.4 4.798 4.867 1.922.266 2.495.999 2.88 3.693.418 2.925.862 3.395 3.444 3.648 2.53.246 3.088.804 3.838 3.84.763 3.083 1.286 3.59 3.997 3.85 2.55.246 3.12.714 3.12 2.562 0 4.085 1 5.296 4.363 5.296 3.006 0 3.218.221 3.498 3.6.28 3.393.501 3.617 3.843 3.895 3.33.277 3.564.509 3.839 3.838.278 3.332.51 3.564 3.841 3.841 3.33.276 3.561.51 3.839 3.84.278 3.329.509 3.563 3.839 3.838 3.332.278 3.563.509 3.84 3.841.279 3.342.5 3.561 3.893 3.841 3.5.29 3.6.405 3.6 4.08 0 2.908.375 3.783 1.62 3.783 2.202 0 6.06 3.773 6.06 5.926 0 .965.402 1.754.894 1.754.494 0 1.164.84 1.49 1.87.327 1.028 1.467 2.146 2.536 2.487 1.07.339 2.733 2.46 3.703 4.72 1.171 2.734 2.523 4.3 4.04 4.68 1.52.382 2.587 1.622 3.208 3.727.7 2.38 1.69 3.378 4.046 4.072 2.304.677 3.12 1.474 3.12 3.04 0 3.943 1.03 5.159 4.365 5.159 3.004 0 3.218.221 3.498 3.6.273 3.308.57 3.639 3.656 4.08 2.986.426 3.413.852 3.841 3.838.42 2.95.85 3.396 3.525 3.657 2.723.263 3.11.691 3.683 4.08.599 3.541.85 3.782 3.914 3.782 2.825 0 3.276.322 3.276 2.321 0 4.148.984 5.359 4.365 5.359 3.003 0 3.215.22 3.495 3.6.28 3.386.51 3.617 3.802 3.892 4.095.341 4.407 1.576 3.863 15.307-.292 7.387-.453 7.918-2.399 7.933-3.994.029-4.879 1.466-5.28 8.569l-.383 6.774-18.37.056c-20.414.058-24.662.847-25.573 4.744l-.56 2.4-22.517.543c-12.383.297-22.603.62-22.71.718-.11.098-.483 1.69-.829 3.54l-.63 3.358-21.73.005c-24.654.008-28.281.592-29.755 4.816l-.996 2.86h-21.089c-23.924 0-23.855-.013-24.684 4.393l-.608 3.25-22.215.258-22.214.256-.294 3.541-.295 3.542-24.757.297c-26.523.321-27.928.582-27.928 5.2v2.263l-22.789.258-22.789.258-.494 2.88c-.6 3.5-4.221 4.009-29.858 4.199-17.474.131-21.675.976-22.57 4.535-.574 2.29-.664 2.304-14.153 2.411-7.466.059-17.677.383-22.694.721l-9.117.612-.302 3.12-.3 3.12h-18.1c-9.955 0-18.782.26-19.617.582-1.25.48-1.518-.202-1.518-3.838v-4.424h7.68v-3.838c0-3.566.19-3.842 2.687-3.842 3.78 0 4.99-1.63 4.99-6.717 0-4.112.264-4.577 3.815-6.767 3.13-1.931 3.82-2.898 3.839-5.388.024-2.789.34-3.088 3.865-3.685 3.598-.607 3.841-.853 3.841-3.905 0-2.774.392-3.344 2.638-3.836 4.789-1.05 5.04-1.284 5.04-4.708 0-2.253.448-3.388 1.335-3.388 3.203 0 5.473-3.32 6.04-8.83l.563-5.468 3.47-.29c3.257-.273 3.489-.514 3.769-3.89.265-3.213.582-3.6 2.928-3.6 3.346 0 4.934-1.595 4.934-4.964 0-2.195.544-2.801 3.106-3.466 2.808-.728 3.184-1.26 3.902-5.539.848-5.061 2.718-7.828 6.19-9.156 1.675-.64 2.16-1.586 2.16-4.209 0-3.225.158-3.383 3.349-3.383 3.157 0 3.383-.217 3.953-3.788.541-3.385.923-3.819 3.61-4.08 2.72-.263 3.035-.635 3.305-3.897.234-2.833.88-3.907 3.02-5.013 2.67-1.38 5.8-7.962 5.8-12.19 0-1.36.75-1.75 3.36-1.75 3.27 0 3.36-.1 3.36-3.782 0-3.676.1-3.79 3.6-4.077 3.381-.28 3.618-.51 3.89-3.79.251-3.006.685-3.569 3.135-4.058 3.352-.67 4.733-3.53 4.733-9.792 0-3.863.214-4.258 2.321-4.258 4.126 0 5.359-.989 5.359-4.299 0-2.913.268-3.176 3.838-3.749 3.61-.577 3.842-.81 3.842-3.885 0-2.913.34-3.346 3.117-3.948 3.708-.806 4.526-1.849 4.545-5.795.013-2.158.66-3.3 2.4-4.233 1.31-.701 2.635-2.07 2.944-3.04.307-.972.963-1.768 1.455-1.768.494 0 .896-1.7.896-3.78 0-3.678.1-3.79 3.6-4.08 3.403-.283 3.615-.495 3.897-3.897.27-3.267.558-3.6 3.086-3.6 3.062 0 4.774-2.173 4.774-6.056 0-1.826.626-2.47 2.826-2.908 3.054-.611 4.837-4.618 4.85-10.897.004-2.843.26-3.082 3.604-3.36 3.405-.282 3.615-.491 3.897-3.897.283-3.402.48-3.6 3.588-3.6 3.099 0 3.328-.226 3.905-3.838.511-3.196.986-3.841 2.835-3.841 2.765 0 3.522-1.153 4.733-7.186.765-3.817 1.583-5.18 4.024-6.72 1.87-1.18 3.32-3.052 3.719-4.81.75-3.289 1.902-4.285 4.976-4.307 1.825-.012 2.16-.534 2.16-3.374 0-4.477 7.931-5.344 9.025-.986" fill="#bfbfbf"/></svg>