<svg class="icon" viewBox="0 0 1024 1024" xmlns="http://www.w3.org/2000/svg" width="200" height="200"><path d="M998.766 523.63c13.824 0 25.015 11.19 25.015 25.015a475.282 475.282 0 0 1-875.594 256.219l-27.574 55.15a25.015 25.015 0 1 1-44.764-22.455l44.178-88.284a24.869 24.869 0 0 1 26.551-25.526 25.015 25.015 0 0 1 8.265.804l99.475 24.869a25.015 25.015 0 0 1-12.069 48.567l-46.372-11.557a425.253 425.253 0 0 0 777.874-237.86c0-13.898 11.19-25.015 25.015-25.015zM430.958 365.714l6.729.659c2.633.438 285.55 160.11 285.55 160.11 20.114 17.846 7.314 34.523-6.583 45.933-1.829 1.463-194.78 113.079-249.93 144.97l-10.678 6.216-3.877 2.195c-16.676 8.923-39.497 8.923-47.25-11.996-.878-2.194-2.268-250.222-2.56-303.396l-.073-9.948.731-.512c.732-18.651 8.265-38.034 34.67-33.646zM415.013 92.306a475.282 475.282 0 0 1 533.87 200.046l27.501-55.15a25.015 25.015 0 1 1 44.69 22.455l-44.105 88.284a24.869 24.869 0 0 1-26.624 25.526 24.869 24.869 0 0 1-8.192-.804l-99.547-24.869a25.015 25.015 0 0 1 12.068-48.567l46.446 11.63a425.253 425.253 0 0 0-777.874 237.714 25.015 25.015 0 0 1-50.03 0A475.282 475.282 0 0 1 415.013 92.306z" fill="#3BA05C"/></svg>