<svg viewBox="0 0 160 160" xmlns="http://www.w3.org/2000/svg" xmlns:xlink="http://www.w3.org/1999/xlink"><defs><path id="a" d="M0 0h160v160H0z"/></defs><g fill="none" fill-rule="evenodd"><mask id="b" fill="#fff"><use xlink:href="#a"/></mask><use fill-opacity="0" fill="#D8D8D8" xlink:href="#a"/><path d="m65.593 18.683 15.08 23.874c2.422 3.834-.333 8.833-4.868 8.833h-6.166v35.752h-8.914V16c1.869 0 3.738.894 4.868 2.683Z" fill="#8FBCFA" fill-rule="nonzero" mask="url(#b)"/><path d="m40.774 42.557 15.08-23.874A5.711 5.711 0 0 1 60.724 16v71.143c-3.194-.15-6.285.775-8.915 2.632V51.39h-6.166c-4.535 0-7.29-5-4.868-8.833Z" fill="#468BFF" fill-rule="nonzero" mask="url(#b)"/><path d="M108.001 110.726H70.67c2.154-2.412 3.43-5.482 3.568-8.915h69.153a5.711 5.711 0 0 1-2.683 4.868l-23.873 15.08c-3.834 2.422-8.834-.333-8.834-4.868v-6.165Z" fill="#FDBB11" fill-rule="nonzero" mask="url(#b)"/><path d="m116.834 81.862 23.874 15.08a5.71 5.71 0 0 1 2.683 4.869H74.236a14.132 14.132 0 0 0-2.758-8.915h36.523V86.73c0-4.535 4.999-7.29 8.833-4.868Z" fill="#F6D785" fill-rule="nonzero" mask="url(#b)"/><path d="m40.47 120.902-21.78 21.78a5.712 5.712 0 0 0 5.339 1.546l27.545-6.218c4.423-.998 6.01-6.481 2.803-9.688l-4.36-4.36 16.379-16.431c3.49-3.49 3.335-9.078-.058-12.471L40.47 120.902Z" fill="#FF9A9D" fill-rule="nonzero" mask="url(#b)"/><path d="m37.411 111.357 16.434-16.372c3.49-3.49 9.102-3.318 12.495.075l-25.868 25.844-21.781 21.781a5.712 5.712 0 0 1-1.546-5.34l6.218-27.544c.999-4.424 6.482-6.01 9.688-2.804l4.36 4.36Z" fill="#FE363B" fill-rule="nonzero" mask="url(#b)"/></g></svg>