<svg width="512" height="512" xmlns="http://www.w3.org/2000/svg"><g fill="none" fill-rule="evenodd"><path fill="#FFF" d="M0 0h512v512H0z"/><path d="M139.516 131c54.02 0 83.515 31.836 83.515 91.158v20.24c-13.862-2.298-27.779-6.09-41.773-11.39v-8.85c0-33.338-14.3-52.17-41.742-52.17-27.444 0-41.744 18.832-41.744 52.17v67.186c0 33.475 14.379 52.669 41.744 52.669 24.623 0 38.731-15.54 41.311-43.043 13.69 3.988 27.418 6.875 41.176 8.653C216.357 355.387 187.576 381 139.516 381 85.648 381 56 348.823 56 289.344v-67.186C56 162.836 85.495 131 139.516 131Zm232.968 0C426.505 131 456 162.836 456 222.158v67.186c0 59.48-29.648 91.656-83.516 91.656-48.14 0-76.938-25.699-82.517-73.617 13.754-1.878 27.476-4.86 41.158-8.944 2.447 27.833 16.578 43.574 41.36 43.574 27.364 0 41.743-19.194 41.743-52.669v-67.186c0-33.338-14.3-52.17-41.744-52.17-27.443 0-41.743 18.832-41.743 52.17v8.141c-13.994 5.431-27.911 9.353-41.772 11.783v-19.924c0-59.322 29.495-91.158 83.515-91.158Zm-18.072 94.467 39.414 6.074-12.077 42.215-7.104-12.549c-14.281 7.22-28.591 13.148-42.925 17.778l-.978.314-.055.017a271.668 271.668 0 0 1-11.326 3.338 262.534 262.534 0 0 1-11.291 2.788 254.021 254.021 0 0 1-12.914 2.528 247.163 247.163 0 0 1-6.188.963 239.898 239.898 0 0 1-33.893 2.415c-10.69 0-21.372-.72-32.044-2.159l-.455-.061-.705-.098 1.16.16a244.381 244.381 0 0 1-12.914-2.092 250.498 250.498 0 0 1-11.438-2.44 257.636 257.636 0 0 1-11.242-2.936 267.098 267.098 0 0 1-6.178-1.84c-15.84-4.928-31.651-11.439-47.426-19.526l-7.585 13.4-12.077-42.215 39.414-6.074-6.057 10.7c11.817 5.981 23.61 10.976 35.383 14.987l.984.333-.984-.333a250.297 250.297 0 0 0 2.746.918l-1.149-.38c.462.154.924.307 1.386.458l-.237-.078c.448.147.897.293 1.346.437l-1.109-.36c.53.174 1.058.344 1.587.513l-.478-.153c.437.14.874.28 1.311.418l-.833-.265c.44.14.879.28 1.318.417l-.485-.152a243.673 243.673 0 0 0 3.588 1.1l-.42-.125c.518.156 1.037.31 1.555.462l-1.135-.336c.463.138.926.274 1.388.41l-.253-.074c.535.156 1.07.311 1.605.464l-1.352-.39c.558.162 1.116.323 1.674.482l-.322-.092c.458.13.917.26 1.375.388l-1.053-.296c.473.134.945.266 1.417.397l-.364-.1a236.444 236.444 0 0 0 4.519 1.212l-1.02-.265c.461.121.921.24 1.382.358l-.362-.093c.495.128.99.254 1.484.378l-1.122-.285c.45.116.9.23 1.35.342l-.228-.057a231.41 231.41 0 0 0 3.505.85l-.592-.14c.469.112.937.221 1.405.33l-.813-.19c.472.11.945.22 1.417.327l-.604-.138c.45.104.9.206 1.349.307l-.745-.169c.434.1.868.197 1.302.293l-.557-.124c.602.135 1.205.267 1.808.397l-1.25-.273c.557.123 1.114.245 1.671.364l-.421-.09c.483.103.966.206 1.45.307l-1.029-.217c.477.101.953.202 1.43.3l-.402-.083c.476.099.95.197 1.426.293l-1.025-.21 1.322.27-.297-.06a224.011 224.011 0 0 0 3.575.692l-.538-.1 1.272.234-.734-.134c.436.08.873.16 1.31.238l-.576-.104c.446.081.892.161 1.339.24l-.764-.136a221.515 221.515 0 0 0 2.72.47l-.977-.165c.406.07.812.137 1.217.204l-.24-.04c.449.075.898.148 1.347.22l-1.107-.18c.496.082.992.162 1.487.24l-.38-.06c.447.071.893.141 1.34.21l-.96-.15a213.559 213.559 0 0 0 33.374 2.638c11.336 0 22.682-.914 34.043-2.744l1.288-.212a209.638 209.638 0 0 0 1.503-.256l-1.438.245c.545-.091 1.091-.185 1.637-.28l-.199.035c.437-.077.873-.154 1.31-.233l-1.111.198c.528-.093 1.057-.187 1.586-.284l-.475.086c.526-.095 1.052-.192 1.578-.29l-1.103.204c.428-.078.856-.158 1.284-.239l-.181.034c.532-.1 1.064-.202 1.596-.306l-1.415.272c.527-.1 1.053-.2 1.58-.304l-.165.032c.445-.087.89-.175 1.336-.265l-1.17.233c.54-.106 1.08-.214 1.62-.324l-.45.091a225.41 225.41 0 0 0 1.503-.309l-1.053.218c.454-.093.907-.187 1.36-.282l-.307.064a227.529 227.529 0 0 0 4.786-1.053l-.246.056c.432-.1.865-.2 1.297-.302l-1.05.246c.476-.11.953-.223 1.43-.336l-.38.09c.587-.139 1.173-.28 1.76-.424l-1.38.334c.498-.119.996-.24 1.495-.362l-.116.028c.446-.108.89-.219 1.336-.33l-1.22.302c.593-.145 1.186-.293 1.78-.444l-.56.141c.437-.11.874-.22 1.312-.333l-.752.192c.412-.104.825-.21 1.238-.318l-.486.126a235.04 235.04 0 0 0 3.68-.978l-.517.141c.438-.12.876-.24 1.314-.362l-.797.22c.513-.14 1.027-.283 1.54-.428l-.743.208c.382-.106.764-.213 1.145-.321l-.402.113a238.951 238.951 0 0 0 2.507-.72l-1.233.358c.563-.162 1.125-.326 1.687-.493l-.454.134c.433-.127.866-.255 1.298-.385l-.844.251c.455-.134.909-.27 1.363-.407l-.519.156c.51-.152 1.018-.307 1.527-.463l-1.008.307c.473-.143.946-.287 1.418-.433l-.41.126c.573-.176 1.145-.354 1.718-.534l-1.308.408c.518-.16 1.035-.321 1.552-.485l-.244.077c.43-.135.86-.272 1.29-.41l-1.046.333c.568-.18 1.136-.361 1.704-.545l-.658.212c.412-.132.824-.266 1.236-.4l-.578.188 1.376-.45-.798.261a248.75 248.75 0 0 0 1.628-.538l-.83.276 1.242-.414 1.386-.47.173-.06-.173.06c.493-.17.985-.34 1.478-.512l-1.305.452c.486-.167.972-.336 1.458-.506l-.153.054c.434-.152.868-.305 1.302-.46l-1.15.406c10.522-3.688 21.06-8.161 31.618-13.422l-6.534-11.543Z" fill="#0005DE" fill-rule="nonzero"/></g></svg>