<svg viewBox="0 0 160 160" xmlns="http://www.w3.org/2000/svg" xmlns:xlink="http://www.w3.org/1999/xlink"><defs><path id="a" d="M0 0h160v160H0z"/></defs><g fill="none" fill-rule="evenodd"><mask id="b" fill="#fff"><use xlink:href="#a"/></mask><use fill-opacity="0" fill="#D8D8D8" xlink:href="#a"/><g mask="url(#b)" fill="currentColor" fill-rule="nonzero"><path d="M80.487 86.296c-5.07 10.465-12.008 24.635-15.453 31.027-3.337 5.817-6.105 5.043-8.299.157-7.615-17.99-23.253-49.53-30.61-67.216-1.359-3.255-2.388-5.346-3.352-6.17-.98-.812-3-1.3-6.078-1.467-1.137-.13-1.695-.406-1.695-.861V39.3l.282-.244c5.005-.027 29.255 0 29.255 0l.276.244v2.35c0 .645-.406.954-1.218.954l-3.055.168c-2.627.157-3.938.888-3.938 2.362 0 .73.287 1.787.899 3.255 5.86 14.333 26.097 56.989 26.097 56.989l.737.249 13.06-26.054-2.611-5.78-8.981-17.68s-1.723-3.542-2.318-4.723c-3.944-7.816-3.857-8.223-7.838-8.759-1.122-.124-1.696-.27-1.696-.807V39.29l.325-.244h23.249l.612.2v2.444c0 .568-.412.812-1.23.812l-1.668.255c-4.29.33-3.58 2.064-.737 7.702l8.57 17.615 9.522-18.98c1.587-3.466 1.262-4.338.601-5.13-.38-.454-1.652-1.191-4.398-1.3l-1.09-.113a1.235 1.235 0 0 1-.784-.276.812.812 0 0 1-.363-.7v-2.312l.33-.244c6.755-.043 21.9 0 21.9 0l.32.244v2.362c0 .655-.32.964-1.046.964-3.5.162-4.236.514-5.541 2.378-.65 1.007-2.032 3.19-3.5 5.628L86.56 73.74l-.353.731 15.124 30.94.92.26 23.812-56.539c.834-2.286.7-3.91-.346-4.848-1.067-.931-1.874-1.478-4.642-1.598L118.8 42.6a1.381 1.381 0 0 1-.824-.244c-.233-.157-.39-.406-.39-.645V39.35l.32-.244h26.872l.222.244v2.367c0 .644-.4.975-1.132.975-3.51.162-6.105.975-7.816 2.28-1.701 1.381-3.017 3.337-3.987 5.78 0 0-21.9 50.147-29.39 66.836-2.845 5.455-5.705 4.967-8.142-.168-3.093-6.343-9.604-20.507-14.333-30.93l.287-.194Z"/></g></g></svg>