<svg viewBox="0 0 160 160" xmlns="http://www.w3.org/2000/svg" xmlns:xlink="http://www.w3.org/1999/xlink"><defs><path id="a" d="M0 0h160v160H0z"/><path id="c" d="M.004 0h41.738v44.24H0z"/></defs><g fill="none" fill-rule="evenodd"><mask id="b" fill="#fff"><use xlink:href="#a"/></mask><use fill-opacity="0" fill="#D8D8D8" xlink:href="#a"/><g mask="url(#b)"><path fill="#6001D2" fill-rule="nonzero" d="M17 17h126v126H17z"/><path d="M83.186 66.5 71.207 95.39 59.327 66.5H39.5l22.104 49.621L53.648 134h19.417L102.5 66.5H83.186Zm23.305 26.447c-7.127 0-12.478 5.359-12.478 11.6 0 6.134 5.143 11.206 12.06 11.206 7.133 0 12.479-5.266 12.479-11.597 0-6.237-5.135-11.205-12.06-11.205" fill="#FFF" fill-rule="nonzero"/><g transform="translate(100.722 44.419)"><mask id="d" fill="#fff"><use xlink:href="#c"/></mask><path fill="#FFF" fill-rule="nonzero" mask="url(#d)" d="M19.719 0 .009 44.24h22.018L41.737.004z"/></g></g></g></svg>